<svg width="54" height="80" viewBox="0 0 54 80" fill="none" xmlns="http://www.w3.org/2000/svg">
<mask id="mask0_506_5516" style="mask-type:alpha" maskUnits="userSpaceOnUse" x="5" y="5" width="44" height="70">
<path fill-rule="evenodd" clip-rule="evenodd" d="M5.96094 47.7192V5.47363H48.4873V19.0877C48.4873 19.0877 41.7504 9.47363 29.2592 10.6666C26.5223 10.9473 24.0662 11.8596 22.6627 12.4912C19.8557 13.7543 17.8908 15.4385 17.1188 16.421L17.0487 16.4912C14.1013 18.4561 13.189 20.3508 13.189 20.3508C11.3644 24.3508 14.2416 27.3684 14.2416 27.3684C13.7504 25.5438 15.0136 24.5614 15.0136 24.5614C17.1188 25.1228 19.9258 25.1228 20.1364 25.1228C20.2186 25.1228 20.3008 25.1468 20.3689 25.1668C20.4171 25.1809 20.4582 25.1929 20.4873 25.1929C26.2416 26.3859 29.2592 31.228 28.2767 36.7017C27.6451 41.3333 21.7504 46.5964 15.2943 47.5087C14.0967 47.7368 13.4553 47.7332 11.7882 47.7239C11.4039 47.7217 10.965 47.7192 10.4522 47.7192H5.96094ZM37.8908 47.7192C39.7855 45.8245 41.1188 43.5087 41.7504 40.7719C44.0662 28.4912 33.8908 23.7192 31.575 23.0877C43.0837 25.5438 50.1715 36.9824 48.2066 47.7192H37.8908ZM36.768 15.7192C30.803 14.9473 25.7504 16.4912 21.7504 19.228C21.7504 19.228 22.9434 18.5263 24.6978 17.8947C24.9785 19.0175 25.9609 19.9999 27.2241 20.2807C28.9785 20.6315 30.6627 19.6491 31.0136 17.9649C31.0837 17.5438 31.0837 17.0526 30.9434 16.6315C42.382 16.2807 48.4873 25.0526 48.4873 25.0526V21.2631C46.803 19.5789 42.1013 16.2807 36.768 15.7192ZM10.803 66.035H9.11883L5.96094 74.456H7.71532L8.41708 72.4911H11.3644L12.0662 74.456H13.9609L10.803 66.035ZM9.89076 68.0701L10.9434 71.0876H8.90831L9.89076 68.0701ZM15.0136 66.035H18.1715C19.4346 66.035 20.4873 66.3858 21.189 67.0876C21.8908 67.7893 22.2416 68.842 22.2416 70.1753C22.2416 70.8771 22.1715 71.5086 21.9609 71.9999C21.7504 72.5613 21.4697 72.9823 21.1188 73.3332C20.768 73.6841 20.2767 73.9648 19.7153 74.1753C19.1539 74.3858 18.5925 74.456 17.8908 74.456H15.0136V66.035ZM17.8908 72.9823C18.3118 72.9823 18.7329 72.9122 19.0837 72.7718C19.4346 72.6315 19.6451 72.4209 19.8557 72.2104C20.0662 71.9999 20.2066 71.649 20.2767 71.3683C20.3469 71.0174 20.4171 70.6665 20.4171 70.2455C20.4171 69.8244 20.3469 69.4736 20.2767 69.1227C20.2066 68.7718 20.0662 68.4911 19.8557 68.2806L19.8557 68.2806C19.6451 68.07 19.4346 67.8595 19.1539 67.7192C18.8732 67.5788 18.5223 67.5086 18.1013 67.5086H16.6978V72.9122H17.8908V72.9823ZM25.189 66.035H23.6451V74.456H25.3294V68.9823L28.768 74.456H30.382V66.035H28.6276V71.5788L25.189 66.035ZM35.8557 74.6665C35.2241 74.6665 34.6627 74.5964 34.1715 74.3858C33.6802 74.1753 33.2592 73.8946 32.9083 73.4736C32.5574 73.1227 32.2767 72.6315 32.1364 72.07C31.9259 71.5086 31.8557 70.9472 31.8557 70.2455C31.8557 69.5437 31.9259 68.9823 32.1364 68.4209C32.3469 67.8595 32.5574 67.4385 32.9083 67.0174C33.2592 66.6665 33.6802 66.3157 34.1715 66.1051C34.6627 65.8946 35.2241 65.8244 35.8557 65.8244C36.4873 65.8244 37.0487 65.8946 37.5399 66.1051C38.0311 66.3157 38.4522 66.5964 38.803 67.0174C39.1539 67.3683 39.4346 67.8595 39.575 68.4209C39.7855 68.9823 39.8557 69.5437 39.8557 70.2455C39.8557 70.9472 39.7855 71.5086 39.575 72.07C39.3644 72.6315 39.1539 73.0525 38.803 73.4736C38.4522 73.8244 38.0311 74.1753 37.5399 74.3858C37.0487 74.5964 36.4873 74.6665 35.8557 74.6665ZM35.8557 73.1929C36.6276 73.1929 37.1188 72.9122 37.5399 72.4209C37.8908 71.9297 38.1013 71.2279 38.1013 70.2455C38.1013 69.3332 37.8908 68.6315 37.5399 68.07C37.1188 67.5788 36.5574 67.3683 35.8557 67.3683C35.0837 67.3683 34.5925 67.649 34.1715 68.1402C33.8206 68.6315 33.6101 69.3332 33.6101 70.3157C33.6101 71.2279 33.8206 71.9999 34.1715 72.4911C34.5223 72.9122 35.0837 73.1929 35.8557 73.1929ZM48.4054 71.649L48.4171 71.5788V71.649H48.4054ZM46.5223 71.649H48.4054C48.3389 72.0467 48.2689 72.4443 48.1364 72.842C47.996 73.1929 47.7153 73.5437 47.4346 73.8244C47.1539 74.1051 46.803 74.3157 46.382 74.456C45.9609 74.5964 45.4697 74.6665 44.9083 74.6665C44.2767 74.6665 43.7153 74.5262 43.2241 74.3157C42.7329 74.1051 42.3118 73.8244 42.0311 73.4034C41.6802 73.0525 41.4697 72.5613 41.3294 71.9999C41.189 71.4385 41.0487 70.8771 41.0487 70.1753C41.0487 69.4736 41.1188 68.9122 41.3294 68.3508C41.5399 67.7893 41.7504 67.3683 42.1013 66.9472C42.4522 66.5964 42.8732 66.2455 43.2943 66.035C43.7855 65.8244 44.3469 65.7543 44.9083 65.7543C45.4697 65.7543 45.8908 65.8244 46.3118 65.9648C46.7329 66.1051 47.0136 66.3157 47.2943 66.5262C47.575 66.8069 47.7855 67.0876 47.9258 67.4385C48.0662 67.7893 48.2066 68.2104 48.2767 68.6315L46.5223 68.842C46.4522 68.3507 46.2416 67.9297 46.0311 67.649C45.7504 67.5086 45.3995 67.3683 44.8381 67.3683C44.1364 67.3683 43.6451 67.649 43.2943 68.1402C42.9434 68.6315 42.803 69.3332 42.803 70.3157C42.803 71.2279 43.0136 71.9999 43.3644 72.4911C43.7153 72.9823 44.2066 73.263 44.8381 73.263C45.3995 73.263 45.7504 73.1227 46.0311 72.842C46.3118 72.5613 46.4522 72.1402 46.5223 71.649ZM15.0136 60.7016V53.1929H16.768V62.1753H9.39953C8.20655 62.1753 7.36445 61.8946 6.80304 61.4034C6.24164 60.9122 5.96094 60.1402 5.96094 59.0876C5.96094 58.5262 6.10129 58.035 6.31182 57.5437C6.59252 57.1929 6.94339 56.842 7.36445 56.6315C7.85567 56.3507 8.3469 56.2104 8.97848 56.2104L9.18901 57.6841C8.6276 57.7543 8.20655 57.8946 7.99603 58.1051C7.7855 58.3157 7.64515 58.6665 7.64515 59.1578C7.64515 59.7192 7.7855 60.07 8.0662 60.3507C8.3469 60.5613 8.76795 60.7016 9.32936 60.7016H15.0136ZM13.3294 56.842V57.4034H11.0837V56.842H11.3644V56.4911C11.3644 56.2104 11.4346 55.9297 11.6451 55.7893C11.7855 55.649 12.0662 55.5788 12.3469 55.5788C12.6276 55.5788 12.9083 55.649 13.0487 55.7893C13.189 55.9297 13.2592 56.1402 13.3294 56.4209L12.768 56.4911C12.768 56.4089 12.7439 56.3508 12.7239 56.3026C12.7098 56.2685 12.6978 56.2395 12.6978 56.2104C12.6276 56.1402 12.5574 56.1402 12.4171 56.1402C12.1364 56.1402 11.996 56.2806 11.996 56.5613V56.842H13.3294ZM33.4697 60.6315V55.9297H35.2241V62.1753H23.8557C23.8557 63.1578 23.6451 64.2104 23.1539 64.7016C23.0837 64.7367 23.0136 64.7893 22.9434 64.842C22.8732 64.8946 22.803 64.9472 22.7329 64.9823L21.8908 63.649C22.1013 63.4385 22.1715 63.0876 22.1715 62.3858V62.1753H21.9609C20.768 62.1753 19.7855 61.8946 19.1539 61.3332C18.5223 60.7718 18.1715 59.8595 18.1715 58.8069C18.1715 57.8946 18.4522 57.1929 18.9434 56.7016C19.4346 56.2104 20.1364 55.9297 21.0487 55.9297C21.9609 55.9297 22.6627 56.1402 23.1539 56.6315C23.6451 57.1227 23.8557 57.8244 23.8557 58.8069V60.6315H33.4697ZM21.6101 60.7016H22.1715H22.2416V59.3683C22.2416 58.8771 22.1715 58.3858 22.1013 58.1051C22.0311 57.8946 21.8908 57.6841 21.7504 57.6139C21.5399 57.5437 21.3294 57.4736 21.0487 57.4736C20.6276 57.4736 20.3469 57.5437 20.1364 57.8244C19.9258 58.035 19.8557 58.3858 19.8557 58.8771C19.8557 59.9999 20.4171 60.7016 21.6101 60.7016ZM35.1539 53.4034H33.4697V55.0876H35.1539V53.4034ZM43.2241 59.7893V60.7016H36.4873V62.2455H44.9083V59.649C44.9083 58.456 44.6276 57.5437 44.0662 56.9122C43.5048 56.2806 42.6627 55.9999 41.6101 55.9999C40.9785 55.9999 40.3469 56.07 39.7855 56.2806L40.2066 57.7543C40.6276 57.6139 41.0487 57.5437 41.4697 57.5437C42.1013 57.5437 42.5223 57.7543 42.803 58.1051C43.0837 58.456 43.2241 59.0174 43.2241 59.7893ZM48.4171 52.7718V53.3332H46.1715V52.7718H46.4522V52.4209C46.4522 52.1402 46.5223 51.8595 46.7329 51.7192C46.8732 51.5788 47.1539 51.4385 47.4346 51.4385C47.7153 51.4385 47.996 51.5086 48.1364 51.649C48.2767 51.7893 48.3469 51.9999 48.4171 52.2806L47.8557 52.3507C47.8557 52.2685 47.8316 52.2104 47.8116 52.1622C47.7975 52.1282 47.7855 52.0991 47.7855 52.07C47.7153 51.9999 47.6452 51.9999 47.5048 51.9999C47.2241 51.9999 47.0837 52.1402 47.0837 52.4209V52.7718H48.4171ZM46.382 54.035H48.0662V62.1753H46.382V54.035Z" fill="#0047BA"/>
</mask>
<g mask="url(#mask0_506_5516)">
<rect x="0.75" width="53" height="80" fill="#616161"/>
</g>
</svg>
